<svg width="2547" height="2398" viewBox="0 0 2547 2398" fill="none" xmlns="http://www.w3.org/2000/svg">
<path d="M1685.85 2396.61L1557.98 2334.98L1490.35 2302.39L1429.85 2273.24L1366.35 2242.64L1303.85 2212.52L1247.35 2185.29L1138.27 2132.73L1081.85 2105.54L1025.96 2078.61L970.973 2052.11L912.87 2024.11L859.853 1998.56L807.353 1973.26L752.929 1947.03L698.094 1920.61L647.658 1896.3L593.853 1870.37L544.853 1846.76L494.353 1822.42L449.079 1800.61L403.853 1778.81L358.353 1756.88L313.353 1735.2L273.853 1716.16L232.353 1696.17L186.353 1674L96.3083 1630.61L47.3526 1607.01L0.852539 1584.61L86.5733 1499.07L212.536 1373.39L307.611 1278.52L339.048 1247.16L368.111 1218.16L430.611 1155.79L489.963 1096.57L522.034 1064.57L586.475 1000.27L712.436 874.592L807.513 779.724L838.95 748.356L868.013 719.357L930.513 656.995L961.657 625.92L989.87 597.769L1021.94 565.769L1117.82 470.105L1243.78 344.423L1338.85 249.555L1370.29 218.188L1399.35 189.189L1461.85 126.827L1521.21 67.6055L1553.28 35.6055L1588.35 0.605469L1631.85 21.9506L1680.35 45.7493L1770.35 89.9117L1815.43 112.03L1897.94 152.518L1984.81 195.146L2031.77 218.188L2077.39 240.571L2176 288.959L2229 314.964L2280.31 340.146L2333.65 366.315L2385.85 391.933L2440.35 418.676L2491.35 443.702L2545.16 470.105L2510.85 500.605L2445.94 566.105L2385.85 626.727L2259.85 753.858L2229 784.994L2168.92 845.605L2140.18 874.605L2108.96 906.105L2042.35 973.31L2016.79 999.105L1452.85 1568.11L1510.35 1595.43L1622.35 1648.65L1675.85 1674.07L1732.85 1701.15L2043.97 1848.99L2177.85 1912.61L2142.86 1947.04L2081.74 2007.15L2048.32 2040.03L2018.98 2068.9L1987.24 2100.12L1953.58 2133.23L1922.2 2164.11L1891.26 2194.54L1861.1 2224.21L1831.86 2252.97L1800.11 2284.21L1764.09 2319.64L1732.36 2350.86L1685.85 2396.61Z" fill="#FFF3F3" fill-opacity="0.32"/>
<path d="M47.3526 1607.01L1631.85 21.9506M96.3083 1630.61L1680.35 45.7493M145.353 1647.61L1724.85 67.6055M186.353 1674L1770.35 89.9117M232.353 1696.17L1815.43 112.03M273.853 1716.16L1851.52 137.939M313.353 1735.2L1897.94 152.518M358.353 1756.88L1934.05 178.244M403.853 1778.81L1984.81 195.146M449.079 1800.61L2031.77 218.188M494.353 1822.42L2077.39 240.571M544.853 1846.76L2125.35 267.605M593.853 1870.37L2176 288.959M647.658 1896.3L2229 314.964M698.094 1920.61L2280.35 340.105M752.929 1947.03L2333.65 366.315M807.353 1973.26L2385.85 391.933M859.853 1998.56L2440.35 418.676M912.87 2024.11L2491.35 443.702M970.973 2052.11L1452.85 1568.11M1025.96 2078.61L1510.35 1595.43M1081.85 2105.54L1564.85 1622.61M1138.27 2132.73L1622.35 1648.65M1193.9 2156.02L1675.85 1674.07M1247.35 2185.29L1732.85 1701.15M1303.85 2212.52L1787.35 1729.61M1366.35 2242.64L1847.85 1761.11M1429.85 2273.24L1910.85 1792.11M1490.35 2302.39L1973.85 1818.61M1557.98 2334.98L2046.85 1846.11M1627.85 2368.11L2109.85 1886.11M2510.85 500.605L2545.16 470.105L1588.35 0.605469L1553.28 35.6055L0.852539 1584.61L1685.85 2396.61L2177.85 1912.61L1452.85 1568.11M1452.85 1568.11L2510.85 500.605M2510.85 500.605L1553.28 35.6055M2478.78 532.605L1521.21 67.6055M2445.94 566.105L1493.45 95.9727M2414.35 596.959L1461.85 126.827M2385.85 626.727L1433.36 156.595M2351.85 659.322L1399.35 189.189M2322.78 688.321L1370.29 218.188M2291.34 719.688L1338.85 249.555M2259.85 753.858L1307.36 283.725M2229 784.994L1276.5 314.861M2195.35 814.105L1242.86 343.973M2168.92 845.605L1216.43 375.473M2140.18 874.605L1187.69 404.473M2108.96 906.105L1156.47 435.973M2070.31 940.238L1117.82 470.105M2042.35 973.31L1089.86 503.177M2021.85 1001.61L1069.36 531.473M1978.62 1030.34L1021.05 565.335M1946.55 1062.34L988.975 597.335M1913.71 1095.84L961.216 625.702M1882.11 1126.69L929.623 656.556M1853.62 1156.46L901.133 686.324M1819.61 1189.05L867.123 718.918M1790.55 1218.05L838.06 747.917M1759.11 1249.42L806.623 779.285M1727.62 1283.59L775.133 813.455M1696.77 1314.72L744.275 844.591M1663.12 1343.84L710.633 873.702M1636.69 1375.34L684.202 905.202M1607.95 1404.34L655.46 934.202M1576.73 1435.84L624.24 965.702M1538.08 1469.97L585.586 999.835M1510.12 1503.04L557.633 1032.91M1479.46 1529.5L521.883 1064.5M1447.39 1561.5L489.812 1096.5M2142.86 1947.04L462.053 1124.87M2111.26 1977.89L430.461 1155.72M2082.77 2007.66L401.97 1185.49M2048.76 2040.25L367.961 1218.08M2019.7 2069.25L338.898 1247.08M1988.26 2100.62L307.461 1278.45M1956.77 2134.79L275.97 1312.62M1925.91 2165.92L245.112 1343.76M1892.27 2195.04L211.47 1372.87M1865.84 2226.54L185.039 1404.37M1837.1 2255.54L156.297 1433.37M1805.88 2287.04L125.077 1464.87M1767.23 2321.17L86.4231 1499M1739.27 2354.24L58.4703 1532.07" stroke="#0E0D0D"/>
</svg>
